<svg width="20" height="21" viewBox="0 0 20 21" fill="none" xmlns="http://www.w3.org/2000/svg">
<path d="M3.33335 10.5C3.33335 6.8181 6.31811 3.83333 10 3.83333C13.6819 3.83333 16.6667 6.8181 16.6667 10.5V11.3333H13.75C13.5199 11.3333 13.3333 11.5199 13.3333 11.75V17.5833C13.3333 17.8134 13.5199 18 13.75 18H17.0833C17.3134 18 17.5 17.8134 17.5 17.5833V10.5C17.5 6.49768 14.365 3.22758 10.4167 3.01137V3H10C5.85788 3 2.50002 6.35787 2.50002 10.5V17.5833C2.50002 17.8134 2.68657 18 2.91668 18H6.25002C6.48013 18 6.66668 17.8134 6.66668 17.5833V11.75C6.66668 11.5199 6.48013 11.3333 6.25002 11.3333H3.33335V10.5Z" fill="url(#paint0_linear_18_117)"/>
<defs>
<linearGradient id="paint0_linear_18_117" x1="19.8437" y1="3.08527" x2="5.2895" y2="21.0603" gradientUnits="userSpaceOnUse">
<stop stop-color="#1EFF00"/>
<stop offset="1" stop-color="white"/>
</linearGradient>
</defs>
</svg>
