<svg width="28" height="28" viewBox="0 0 28 28" fill="none" xmlns="http://www.w3.org/2000/svg">
<path fill-rule="evenodd" clip-rule="evenodd" d="M21.1151 12.6721C21.8228 10.4168 21.2066 8.60866 19.9125 7.28849C18.5511 5.89977 16.363 5 14 5C13.9431 5 13.8868 4.99763 13.8312 4.99298C13.7755 4.99763 13.7192 5.00001 13.6623 5.00001C11.2993 5.00001 9.11122 5.89977 7.74983 7.28849C6.45563 8.60867 5.83951 10.4168 6.54723 12.6721C7.06554 14.3238 7.83163 15.2173 8.69296 16.1429C8.75865 16.2135 8.8267 16.2858 8.89661 16.3601L8.89695 16.3604C9.74271 17.2592 10.8595 18.446 11.3413 20.342C12.1719 23.6106 9.69786 27.1408 6.03755 27.1408C4.51247 27.1408 3.32995 26.4635 2.60453 25.9015C2.23181 25.6128 1.94205 25.3262 1.74233 25.1085C1.64149 24.9986 1.5609 24.9033 1.50153 24.83C1.47178 24.7933 1.44714 24.7619 1.42775 24.7367L1.40255 24.7034L1.39287 24.6904L1.38877 24.6849L1.3869 24.6823L1.38601 24.6811C1.38558 24.6805 1.38516 24.68 3 23.5L1.38516 24.68C0.733488 23.7881 0.928197 22.5368 1.82005 21.8852C2.70593 21.2379 3.94642 21.4256 4.60166 22.3022L4.60868 22.311C4.62206 22.3275 4.6495 22.3604 4.6898 22.4043C4.77233 22.4943 4.89722 22.6178 5.05406 22.7393C5.38776 22.9978 5.72401 23.1408 6.03755 23.1408C6.97379 23.1408 7.68132 22.1804 7.46449 21.3271C7.2432 20.4562 6.79268 19.9722 5.82581 18.9335L5.76469 18.8678C4.75644 17.7843 3.51435 16.3669 2.73073 13.8698C1.55807 10.1329 2.62179 6.80556 4.89344 4.48831C7.09789 2.23961 10.3616 1.00001 13.6623 1.00001C13.7191 1.00001 13.7754 1.00238 13.8311 1.00703C13.8868 1.00238 13.9431 1 14 1C17.3007 1 20.5644 2.2396 22.7688 4.4883C25.0405 6.80555 26.1042 10.1329 24.9316 13.8698C24.1479 16.3669 22.9058 17.7843 21.8976 18.8678L21.8365 18.9335C20.8696 19.9722 20.4191 20.4562 20.1978 21.3271C19.981 22.1804 20.6885 23.1408 21.6247 23.1408C21.9751 23.1408 22.4236 22.9695 22.8908 22.6574C23.1047 22.5145 23.281 22.3696 23.4013 22.2626C23.4605 22.2099 23.5034 22.1687 23.5278 22.1447C23.5338 22.1388 23.5387 22.134 23.5423 22.1304C23.5452 22.1274 23.5473 22.1253 23.5486 22.1239C24.3046 21.3264 25.5639 21.288 26.3671 22.0402C27.1733 22.7952 27.2148 24.0609 26.4598 24.8671L25 23.5C26.4598 24.8671 26.4594 24.8675 26.459 24.868L26.4581 24.8689L26.4563 24.8708L26.4522 24.8752L26.4422 24.8857L26.4151 24.9138C26.3939 24.9356 26.3664 24.9633 26.3329 24.9963C26.2661 25.062 26.1747 25.149 26.061 25.2502C25.8357 25.4508 25.513 25.7161 25.1129 25.9834C24.3521 26.4917 23.1129 27.1408 21.6247 27.1408C17.9644 27.1408 15.4904 23.6106 16.321 20.342C16.8028 18.446 17.9196 17.2592 18.7653 16.3604C18.8354 16.286 18.9035 16.2136 18.9693 16.1429C19.8307 15.2173 20.5967 14.3238 21.1151 12.6721Z" fill="white"/>
</svg>
